<svg xmlns="http://www.w3.org/2000/svg" viewBox="0 0 256 256">
  <rect width="256" height="256" rx="52" fill="#1d5f4b"/>
  <rect x="28" y="28" width="200" height="200" rx="40" fill="#f3efe6"/>

  <g shape-rendering="crispEdges">
    <rect x="56" y="56" width="144" height="92" fill="#20372f"/>
    <rect x="64" y="64" width="128" height="76" fill="#7ad7bf"/>

    <rect x="72" y="72" width="12" height="12" fill="#0d5c4c"/>
    <rect x="84" y="72" width="12" height="12" fill="#9bf0d8"/>
    <rect x="96" y="72" width="12" height="12" fill="#0d5c4c"/>
    <rect x="120" y="72" width="12" height="12" fill="#0d5c4c"/>
    <rect x="132" y="72" width="12" height="12" fill="#9bf0d8"/>
    <rect x="144" y="72" width="12" height="12" fill="#0d5c4c"/>
    <rect x="168" y="72" width="12" height="12" fill="#0d5c4c"/>
    <rect x="180" y="72" width="12" height="12" fill="#9bf0d8"/>

    <rect x="72" y="92" width="48" height="8" fill="#0d5c4c"/>
    <rect x="72" y="108" width="72" height="8" fill="#0d5c4c"/>
    <rect x="72" y="124" width="60" height="8" fill="#0d5c4c"/>

    <rect x="152" y="96" width="28" height="28" fill="#0d5c4c"/>
    <rect x="160" y="104" width="12" height="12" fill="#9bf0d8"/>

    <rect x="104" y="152" width="48" height="16" fill="#20372f"/>
    <rect x="96" y="168" width="64" height="12" fill="#20372f"/>
    <rect x="84" y="180" width="88" height="12" fill="#c8d6d0"/>
  </g>
</svg>
